<?xml version="1.0" standalone="no"?>
<!DOCTYPE svg PUBLIC "-//W3C//DTD SVG 20010904//EN"
 "http://www.w3.org/TR/2001/REC-SVG-20010904/DTD/svg10.dtd">
<svg version="1.0" xmlns="http://www.w3.org/2000/svg"
 width="700.000000pt" height="700.000000pt" viewBox="0 0 700.000000 700.000000"
 preserveAspectRatio="xMidYMid meet">
<metadata>
Created by potrace 1.14, written by Peter Selinger 2001-2017
</metadata>
<g transform="translate(0.000000,700.000000) scale(0.100000,-0.100000)"
fill="#000000" stroke="none">
<path d="M1855 6069 c-55 -4 -131 -17 -170 -29 -38 -12 -78 -24 -88 -27 -9 -3
-52 -23 -94 -45 -207 -105 -370 -270 -472 -476 -78 -157 -101 -255 -101 -422
0 -131 0 -139 26 -260 38 -176 149 -376 282 -506 l32 -30 -51 -55 c-60 -63
-124 -152 -166 -229 -35 -64 -83 -181 -89 -219 -3 -14 -9 -42 -14 -61 -13 -50
-19 -111 -20 -205 -3 -267 102 -530 289 -721 l50 -52 -42 -43 c-134 -139 -242
-338 -275 -509 -20 -101 -22 -124 -22 -253 0 -162 24 -267 97 -417 138 -281
398 -489 703 -561 150 -35 374 -23 553 31 119 35 293 140 390 234 l57 56 58
-55 c145 -138 328 -232 527 -270 90 -17 292 -17 375 1 202 43 390 140 529 274
l53 52 52 -49 c72 -70 130 -114 211 -161 78 -45 244 -105 318 -116 27 -4 59
-10 70 -12 43 -9 266 -4 314 6 143 32 254 78 367 155 229 153 378 366 450 644
20 79 21 308 1 407 -21 102 -59 212 -98 283 -28 53 -104 170 -116 181 -3 3
-30 30 -59 61 l-52 55 50 55 c131 139 221 304 267 489 23 94 27 324 7 420 -43
207 -135 385 -273 527 l-50 52 50 52 c151 155 260 383 284 594 9 76 5 274 -6
322 -6 26 -12 55 -14 63 -31 141 -149 346 -269 465 -147 147 -306 237 -506
285 -125 31 -348 25 -490 -13 -167 -44 -328 -133 -453 -251 l-59 -55 -59 57
c-141 134 -327 228 -524 267 -93 18 -282 17 -370 -1 -38 -9 -81 -18 -94 -20
-32 -6 -185 -70 -219 -91 -92 -56 -164 -109 -215 -158 l-59 -56 -52 51 c-119
116 -283 209 -447 255 -76 21 -92 24 -179 31 -41 3 -79 6 -85 8 -5 1 -55 -2
-110 -5z"/>
</g>
</svg>
